# xmcd
#
# Track frame offsets: 
#        150
#        13866
#        27300
#        42256
#        56436
#        70162
#        84408
#        97493
#        112558
#        126127
#        140772
#        153894
#        166231
#        175447
#        188393
#        203091
#        215411
#        229023
#        250128
#        261838
#        281250
#        302767
#
# Disc length: 4188 seconds
#
# Revision: 3
# Processed by: cddbd v1.5.2PL0 Copyright (c) Steve Scherf et al.
# Submitted via: ExactAudioCopy v0.99pb5
#
DISCID=2a105a16
DTITLE=Millésime - Blues Music - CD3 The historic side of the blues
DYEAR=2000
DGENRE=Blues
TTITLE0=Robert Johnson - Sweet home Chicago
TTITLE1=Woody Guthrie - House of the rising sun
TTITLE2=Mississipi John Hurt - Frankie
TTITLE3=Blind Boy Fuller - Homesick and lonesome blues
TTITLE4=Big Bill Broonzy - Big Bill blues
TTITLE5=Mildred Bailey - Gulf coast blues
TTITLE6=Leadbelly - Good morning blues
TTITLE7=Blind Billie Johnson - Dark was the night
TTITLE8=Blind Willie Mc Tell - Scarey day blues
TTITLE9=Bessie Smith - The gin house blues
TTITLE10=Bukka White - Special streamline
TTITLE11=Sonny Boy Williamson - Cool cool blues
TTITLE12=W.C. Handy - Mister Crump
TTITLE13=Cripple Clarence Lofton - Strut that thing
TTITLE14=Sonny Boy Williamson - Sloppy drunk blues
TTITLE15=Elmore James - Blues before sunrise
TTITLE16=T. Bone Walker - Call it stormy monday
TTITLE17=Howlin' Wolf - Blind love
TTITLE18=Dinah Washington - Early in the morning
TTITLE19=Lightnin' Hopkins - Guitar lightnin'
TTITLE20=Howlin' Wolf - I did not mean to hurt your feelings
TTITLE21=John Lee Hooker - Hard hearted woman
EXTD=YEAR: 2000
EXTT0=
EXTT1=
EXTT2=
EXTT3=
EXTT4=
EXTT5=
EXTT6=
EXTT7=
EXTT8=
EXTT9=
EXTT10=
EXTT11=
EXTT12=
EXTT13=
EXTT14=
EXTT15=
EXTT16=
EXTT17=
EXTT18=
EXTT19=
EXTT20=
EXTT21=
PLAYORDER=
